TITLE ""
FILE "1Q_t_1459-1468.mp3" MP3
  TRACK 01 AUDIO
    TITLE "1Q_t_1459-1468_01"
    INDEX 01 00:00:00
  TRACK 02 AUDIO
    TITLE "1Q_t_1459-1468_02"
    INDEX 01 00:00:10
  TRACK 03 AUDIO
    TITLE "1Q_t_1459-1468_03"
    INDEX 01 00:01:23
  TRACK 04 AUDIO
    TITLE "1Q_t_1459-1468_04"
    INDEX 01 00:01:33
  TRACK 05 AUDIO
    TITLE "1Q_t_1459-1468_05"
    INDEX 01 00:03:40
  TRACK 06 AUDIO
    TITLE "1Q_t_1459-1468_06"
    INDEX 01 00:03:48
  TRACK 07 AUDIO
    TITLE "1Q_t_1459-1468_07"
    INDEX 01 00:08:55
  TRACK 08 AUDIO
    TITLE "1Q_t_1459-1468_08"
    INDEX 01 00:09:23
  TRACK 09 AUDIO
    TITLE "1Q_t_1459-1468_09"
    INDEX 01 00:10:34
  TRACK 10 AUDIO
    TITLE "1Q_t_1459-1468_10"
    INDEX 01 00:10:40
  TRACK 11 AUDIO
    TITLE "1Q_t_1459-1468_11"
    INDEX 01 00:12:51
  TRACK 12 AUDIO
    TITLE "1Q_t_1459-1468_12"
    INDEX 01 00:12:57
  TRACK 13 AUDIO
    TITLE "1Q_t_1459-1468_13"
    INDEX 01 00:17:28
  TRACK 14 AUDIO
    TITLE "1Q_t_1459-1468_14"
    INDEX 01 00:17:73
  TRACK 15 AUDIO
    TITLE "1Q_t_1459-1468_15"
    INDEX 01 00:19:12
  TRACK 16 AUDIO
    TITLE "1Q_t_1459-1468_16"
    INDEX 01 00:19:19
  TRACK 17 AUDIO
    TITLE "1Q_t_1459-1468_17"
    INDEX 01 00:20:48
  TRACK 18 AUDIO
    TITLE "1Q_t_1459-1468_18"
    INDEX 01 00:20:54
  TRACK 19 AUDIO
    TITLE "1Q_t_1459-1468_19"
    INDEX 01 00:26:02
  TRACK 20 AUDIO
    TITLE "1Q_t_1459-1468_20"
    INDEX 01 00:26:45
  TRACK 21 AUDIO
    TITLE "1Q_t_1459-1468_21"
    INDEX 01 00:27:60
  TRACK 22 AUDIO
    TITLE "1Q_t_1459-1468_22"
    INDEX 01 00:27:68
  TRACK 23 AUDIO
    TITLE "1Q_t_1459-1468_23"
    INDEX 01 00:29:34
  TRACK 24 AUDIO
    TITLE "1Q_t_1459-1468_24"
    INDEX 01 00:29:37
  TRACK 25 AUDIO
    TITLE "1Q_t_1459-1468_25"
    INDEX 01 00:33:57
  TRACK 26 AUDIO
    TITLE "1Q_t_1459-1468_26"
    INDEX 01 00:34:27
  TRACK 27 AUDIO
    TITLE "1Q_t_1459-1468_27"
    INDEX 01 00:35:22
  TRACK 28 AUDIO
    TITLE "1Q_t_1459-1468_28"
    INDEX 01 00:35:30
  TRACK 29 AUDIO
    TITLE "1Q_t_1459-1468_29"
    INDEX 01 00:38:32
  TRACK 30 AUDIO
    TITLE "1Q_t_1459-1468_30"
    INDEX 01 00:38:38
  TRACK 31 AUDIO
    TITLE "1Q_t_1459-1468_31"
    INDEX 01 00:42:75
  TRACK 32 AUDIO
    TITLE "1Q_t_1459-1468_32"
    INDEX 01 00:43:47
  TRACK 33 AUDIO
    TITLE "1Q_t_1459-1468_33"
    INDEX 01 00:44:51
  TRACK 34 AUDIO
    TITLE "1Q_t_1459-1468_34"
    INDEX 01 00:44:60
  TRACK 35 AUDIO
    TITLE "1Q_t_1459-1468_35"
    INDEX 01 00:46:10
  TRACK 36 AUDIO
    TITLE "1Q_t_1459-1468_36"
    INDEX 01 00:46:16
  TRACK 37 AUDIO
    TITLE "1Q_t_1459-1468_37"
    INDEX 01 00:51:74
  TRACK 38 AUDIO
    TITLE "1Q_t_1459-1468_38"
    INDEX 01 00:52:44
  TRACK 39 AUDIO
    TITLE "1Q_t_1459-1468_39"
    INDEX 01 00:53:67
  TRACK 40 AUDIO
    TITLE "1Q_t_1459-1468_40"
    INDEX 01 00:53:75
  TRACK 41 AUDIO
    TITLE "1Q_t_1459-1468_41"
    INDEX 01 00:56:03
  TRACK 42 AUDIO
    TITLE "1Q_t_1459-1468_42"
    INDEX 01 00:56:11
  TRACK 43 AUDIO
    TITLE "1Q_t_1459-1468_43"
    INDEX 01 01:00:63
  TRACK 44 AUDIO
    TITLE "1Q_t_1459-1468_44"
    INDEX 01 01:01:33
  TRACK 45 AUDIO
    TITLE "1Q_t_1459-1468_45"
    INDEX 01 01:02:47
  TRACK 46 AUDIO
    TITLE "1Q_t_1459-1468_46"
    INDEX 01 01:02:54
  TRACK 47 AUDIO
    TITLE "1Q_t_1459-1468_47"
    INDEX 01 01:03:60
  TRACK 48 AUDIO
    TITLE "1Q_t_1459-1468_48"
    INDEX 01 01:03:68
  TRACK 49 AUDIO
    TITLE "1Q_t_1459-1468_49"
    INDEX 01 01:07:65
  TRACK 50 AUDIO
    TITLE "1Q_t_1459-1468_50"
    INDEX 01 01:08:36
  TRACK 51 AUDIO
    TITLE "1Q_t_1459-1468_51"
    INDEX 01 01:09:57
  TRACK 52 AUDIO
    TITLE "1Q_t_1459-1468_52"
    INDEX 01 01:09:62
  TRACK 53 AUDIO
    TITLE "1Q_t_1459-1468_53"
    INDEX 01 01:11:69
  TRACK 54 AUDIO
    TITLE "1Q_t_1459-1468_54"
    INDEX 01 01:11:75
  TRACK 55 AUDIO
    TITLE "1Q_t_1459-1468_55"
    INDEX 01 01:16:10
  TRACK 56 AUDIO
    TITLE "1Q_t_1459-1468_56"
    INDEX 01 01:16:55
  TRACK 57 AUDIO
    TITLE "1Q_t_1459-1468_57"
    INDEX 01 01:18:03
  TRACK 58 AUDIO
    TITLE "1Q_t_1459-1468_58"
    INDEX 01 01:18:12
  TRACK 59 AUDIO
    TITLE "1Q_t_1459-1468_59"
    INDEX 01 01:21:46
  TRACK 60 AUDIO
    TITLE "1Q_t_1459-1468_60"
    INDEX 01 01:21:54
  TRACK 61 AUDIO
    TITLE "1Q_t_1459-1468_61"
    INDEX 01 01:27:58
